# xmcd
#
# Track frame offsets:
#	150
#	12102
#	26754
#	50434
#	74978
#	80138
#	100848
#	104217
#	128608
#	134669
#	164092
#	174207
#	194533
#	198041
#	218747
#	226899
#	241673
#	245846
#	276405
#	284786
#	298688
#	304312
#	327928
#
# Disc length: 4465 seconds
#
# Revision: 1
# Processed by: cddbd v1.5.2PL0 Copyright (c) Steve Scherf et al.
# Submitted via: audiograbber 1.83.01
#
DISCID=6e116f17
DTITLE=Grateful Dead - 74-06-22 Jai-Alai Fronton, Miami FL
DYEAR=1900
DGENRE=
TTITLE0=Tuning
TTITLE1=Promised Land
TTITLE2=Bertha
TTITLE3=Greatest Story Ever Told
TTITLE4=Tuning
TTITLE5=Deal
TTITLE6=Tuning
TTITLE7=Me and Bobby McGee
TTITLE8=Tuning
TTITLE9=Scarlet Begonias
TTITLE10=Tuning
TTITLE11=Jack Straw
TTITLE12=Tuning
TTITLE13=Loose Lucy
TTITLE14=Tuning
TTITLE15=Mexicali Blues
TTITLE16=Tuning
TTITLE17=Sugaree
TTITLE18=Tuning
TTITLE19=The Race Is On
TTITLE20=Tuning
TTITLE21=It Must Have Been The Roses
TTITLE22=Tuning
EXTD=
EXTT0=
EXTT1=
EXTT2=
EXTT3=
EXTT4=
EXTT5=
EXTT6=
EXTT7=
EXTT8=
EXTT9=
EXTT10=
EXTT11=
EXTT12=
EXTT13=
EXTT14=
EXTT15=
EXTT16=
EXTT17=
EXTT18=
EXTT19=
EXTT20=
EXTT21=
EXTT22=
PLAYORDER=
